<svg width="90" height="78" viewBox="0 0 90 78" fill="none" xmlns="http://www.w3.org/2000/svg">
<path d="M86.9957 72.0003H80.996V30.0024C80.996 28.4112 80.3638 26.8851 79.2387 25.76C78.1135 24.6348 76.5875 24.0027 74.9963 24.0027H50.9975V6.0036C50.9982 4.91714 50.7038 3.85088 50.1459 2.91863C49.588 1.98638 48.7874 1.22312 47.8295 0.710328C46.8717 0.197535 45.7926 -0.0455454 44.7074 0.00703041C43.6222 0.0596062 42.5717 0.405865 41.6679 1.00885L11.6694 21.0028C10.8465 21.5519 10.1721 22.2959 9.70626 23.1687C9.24045 24.0414 8.99767 25.0158 8.99955 26.0051V72.0003H2.99985C2.20424 72.0003 1.44122 72.3163 0.878636 72.8789C0.316055 73.4415 0 74.2045 0 75.0001C0 75.7958 0.316055 76.5588 0.878636 77.1214C1.44122 77.6839 2.20424 78 2.99985 78H86.9957C87.7913 78 88.5543 77.6839 89.1169 77.1214C89.6794 76.5588 89.9955 75.7958 89.9955 75.0001C89.9955 74.2045 89.6794 73.4415 89.1169 72.8789C88.5543 72.3163 87.7913 72.0003 86.9957 72.0003ZM74.9963 30.0024V72.0003H50.9975V30.0024H74.9963ZM14.9993 26.0051L44.9978 6.0036V72.0003H14.9993V26.0051ZM38.9981 36.0021V42.0018C38.9981 42.7974 38.682 43.5604 38.1194 44.123C37.5568 44.6856 36.7938 45.0016 35.9982 45.0016C35.2026 45.0016 34.4396 44.6856 33.877 44.123C33.3144 43.5604 32.9984 42.7974 32.9984 42.0018V36.0021C32.9984 35.2065 33.3144 34.4435 33.877 33.8809C34.4396 33.3183 35.2026 33.0022 35.9982 33.0022C36.7938 33.0022 37.5568 33.3183 38.1194 33.8809C38.682 34.4435 38.9981 35.2065 38.9981 36.0021ZM26.9987 36.0021V42.0018C26.9987 42.7974 26.6826 43.5604 26.12 44.123C25.5574 44.6856 24.7944 45.0016 23.9988 45.0016C23.2032 45.0016 22.4402 44.6856 21.8776 44.123C21.315 43.5604 20.999 42.7974 20.999 42.0018V36.0021C20.999 35.2065 21.315 34.4435 21.8776 33.8809C22.4402 33.3183 23.2032 33.0022 23.9988 33.0022C24.7944 33.0022 25.5574 33.3183 26.12 33.8809C26.6826 34.4435 26.9987 35.2065 26.9987 36.0021ZM26.9987 57.001V63.0007C26.9987 63.7964 26.6826 64.5594 26.12 65.122C25.5574 65.6845 24.7944 66.0006 23.9988 66.0006C23.2032 66.0006 22.4402 65.6845 21.8776 65.122C21.315 64.5594 20.999 63.7964 20.999 63.0007V57.001C20.999 56.2054 21.315 55.4424 21.8776 54.8798C22.4402 54.3173 23.2032 54.0012 23.9988 54.0012C24.7944 54.0012 25.5574 54.3173 26.12 54.8798C26.6826 55.4424 26.9987 56.2054 26.9987 57.001ZM38.9981 57.001V63.0007C38.9981 63.7964 38.682 64.5594 38.1194 65.122C37.5568 65.6845 36.7938 66.0006 35.9982 66.0006C35.2026 66.0006 34.4396 65.6845 33.877 65.122C33.3144 64.5594 32.9984 63.7964 32.9984 63.0007V57.001C32.9984 56.2054 33.3144 55.4424 33.877 54.8798C34.4396 54.3173 35.2026 54.0012 35.9982 54.0012C36.7938 54.0012 37.5568 54.3173 38.1194 54.8798C38.682 55.4424 38.9981 56.2054 38.9981 57.001Z" fill="black"/>
</svg>
